# xmcd CD database file
#
# Track frame offsets:
#	150
#	32021
#	59374
#	86131
#	104505
#	130992
#	160854
#
# Disc length: 2464 seconds
#
# Revision: 1
# Processed by: cddbd v1.5.2PL0 Copyright (c) Steve Scherf et al.
# Submitted via: CDex 1.70beta3
#
DISCID=5a099e07
DTITLE=PPBP - Live At Winehouse
DYEAR=2017
DGENRE=Jazz
TTITLE0=三原彩子(P) 藤田耕平(B) - I Remember You
TTITLE1=三原彩子(P) 藤田耕平(Pianica) - Smoke Gets In Your Eyes
TTITLE2=三原彩子(P) 藤田耕平(Pianica) - Ladybird
TTITLE3=三原彩子(P) 藤田耕平(B) - Blue Wine
TTITLE4=三原彩子(P) 藤田耕平(Pianica) - All the Things You Are
TTITLE5=三原彩子(P) 藤田耕平(Pianica) - Embraceable You
TTITLE6=三原彩子(Pianica) 藤田耕平(P) - Wail
EXTD=YEAR: 2017
EXTT0=
EXTT1=
EXTT2=
EXTT3=
EXTT4=
EXTT5=
EXTT6=
PLAYORDER=
